<?xml version="1.0" encoding="UTF-8"?>
<svg viewBox="0 0 597.5 576.25" xmlns="http://www.w3.org/2000/svg">
 <g transform="matrix(1.25,0,0,-1.25,0,576.25)">
  <g transform="scale(.24)">
   <path d="m501.25,1606.25c85.609.46 155,69.84 155,155 0,86.02-69.391,155.42-155,155-85.57.42-154.957-68.98-155-155 .043-85.16 69.43-154.54 155-155"/>
   <path d="m94.25,1057.25h137l82,299h34l-81-299h482l-87,299h36l46-146c21.332-62.33 76.258-76.66 118-24l167,202c52.48,67.48-41.793,138.83-96,79l-99-117c.082-2.2-19,64-19,64-22.582,79.5-97.582,157.31-210,157h-213c-99.582.31-178.312-87.22-195-142l-102-372"/>
   <path d="m979.25 1465.2h139v310h-139v-310z"/>
   <path d="m1587.25,1605.25c85.79-.02 155.18,69.37 155,155 .18,85.55-69.21,154.94-155,155-85.39-.06-154.78-69.45-155-155 .22-85.63 69.61-155.02 155-155"/>
   <path d="m1783.2 141.25v857h114v467c0.05 60.67-54.75 107.63-133 108h-364c-72.41-0.37-90.02-23.85-110-43l-303-365c-61.492-75.61 48.07-164.46 110-93l292 345v-1277c-0.43-128.63 179.5-132.87 179-4v725h36v-721c0.35-128.24 179.2-128.63 179 1"/>
   <path d="m4.25 845.25h1982v177h-1982v-177z"/>
  </g>
 </g>
</svg>
