<?xml version="1.0" encoding="UTF-8" standalone="no"?>
<svg
   xmlns:dc="http://purl.org/dc/elements/1.1/"
   xmlns:cc="http://creativecommons.org/ns#"
   xmlns:rdf="http://www.w3.org/1999/02/22-rdf-syntax-ns#"
   xmlns:svg="http://www.w3.org/2000/svg"
   xmlns="http://www.w3.org/2000/svg"
   viewBox="0 0 793.70667 1122.52"
   height="1122.52"
   width="793.70667"
   xml:space="preserve"
   id="svg2"
   version="1.1"><metadata
     id="metadata8"><rdf:RDF><cc:Work
         rdf:about=""><dc:format>image/svg+xml</dc:format><dc:type
           rdf:resource="http://purl.org/dc/dcmitype/StillImage" /><dc:title></dc:title></cc:Work></rdf:RDF></metadata><defs
     id="defs6"><clipPath
       id="clipPath18"
       clipPathUnits="userSpaceOnUse"><path
         id="path16"
         d="M 0,841.89 H 595.28 V 0 H 0 Z" /></clipPath></defs><g
     transform="matrix(1.3333333,0,0,-1.3333333,0,1122.52)"
     id="g10"><g
       style="fill:#000000"
       id="g12"><g
         style="fill:#000000"
         clip-path="url(#clipPath18)"
         id="g14"><path
           id="path20"
           style="fill:#000000;fill-opacity:1;fill-rule:nonzero;stroke:none"
           d="M 505.676,382.571 H 489.19 v 78.55 h 16.486 z M 422.597,337 c -10.654,0 -19.279,8.654 -19.279,19.279 0,10.596 8.665,19.24 19.279,19.24 10.609,0 19.234,-8.666 19.234,-19.24 C 441.847,345.657 433.192,337 422.597,337 M 308.511,462.371 H 199.874 c 0,0 38.677,49.104 57.079,49.104 h 51.558 z M 160.874,337 c -10.659,0 -19.279,8.665 -19.279,19.279 0,10.605 8.675,19.24 19.279,19.24 10.618,0 19.242,-8.666 19.242,-19.24 C 180.127,345.665 171.492,337 160.874,337 m -62.966,61.971 c -2.121,0 -4.199,0.436 -6.231,1.103 2.328,11.221 6.641,18.846 12.893,22.615 3.07,1.836 6.603,3.613 10.528,5.394 1.836,-2.984 2.849,-6.305 2.849,-9.732 -0.001,-10.692 -8.99,-19.38 -20.039,-19.38 m 154.273,130.922 c -33.188,0 -96.518,-81.681 -96.518,-81.681 0,0 -36.248,-6.082 -59.967,-20.303 C 71.969,413.666 81.464,356.734 81.464,356.734 h 35.47 c 0,-0.151 -0.023,-0.293 -0.023,-0.444 0,-24.289 19.637,-43.993 43.964,-43.993 24.275,0 43.944,19.715 43.944,43.993 0,0.151 -0.021,0.293 -0.021,0.444 h 173.855 c 0,-0.151 -0.021,-0.293 -0.021,-0.444 0,-24.289 19.64,-43.993 43.97,-43.993 24.255,0 43.938,19.715 43.938,43.993 0,0.151 -0.021,0.293 -0.021,0.444 h 56.069 v 104.39 68.778 c -19.013,-0.009 -237.2,-0.009 -270.407,-0.009" /></g></g></g></svg>