<?xml version="1.0" encoding="UTF-8" standalone="no"?>
<svg
   xmlns:dc="http://purl.org/dc/elements/1.1/"
   xmlns:cc="http://creativecommons.org/ns#"
   xmlns:rdf="http://www.w3.org/1999/02/22-rdf-syntax-ns#"
   xmlns:svg="http://www.w3.org/2000/svg"
   xmlns="http://www.w3.org/2000/svg"
   id="svg55"
   version="1.1"
   viewBox="0 0 407.02304 391.29883">
  <metadata
     id="metadata59">
    <rdf:RDF>
      <cc:Work
         rdf:about="">
        <dc:format>image/svg+xml</dc:format>
        <dc:type
           rdf:resource="http://purl.org/dc/dcmitype/StillImage" />
        <dc:title></dc:title>
      </cc:Work>
    </rdf:RDF>
  </metadata>
  <defs
     id="defs15">
    <filter
       id="c">
      <feGaussianBlur
         id="feGaussianBlur2"
         stdDeviation=".27578" />
    </filter>
    <linearGradient
       gradientTransform="translate(-66.914,-360.53)"
       gradientUnits="userSpaceOnUse"
       y2="695.54"
       y1="558.87"
       x2="239.57"
       x1="242.79"
       id="b">
      <stop
         id="stop5"
         offset="0"
         stop-color="#00484d" />
      <stop
         id="stop7"
         offset="1"
         stop-color="#007880" />
    </linearGradient>
    <linearGradient
       gradientTransform="translate(-66.914,-360.53)"
       gradientUnits="userSpaceOnUse"
       y2="512.65"
       y1="500.5"
       x2="416.14"
       x1="142.12"
       id="a">
      <stop
         id="stop10"
         offset="0"
         stop-color="#007880" />
      <stop
         id="stop12"
         offset="1"
         stop-opacity="0"
         stop-color="#007880" />
    </linearGradient>
  </defs>
  <path
     d="m 40.916,188.69 h 332.63 c 6.2992,0 11.37,5.0712 11.37,11.37 l -25.728,179.87 c 0,6.2991 -5.0711,11.37 -11.37,11.37 H 66.648 c -6.2992,0 -11.37,-5.0711 -11.37,-11.37 L 29.55,200.06 c 0,-6.2991 5.0711,-11.37 11.37,-11.37 z"
     id="path17"
     style="fill:#1a1a1a" />
  <path
     d="m 1.005,184.49 v 31.356 c 0,6.2991 4.9569,11.256 11.256,11.256 h 383.31 c 6.2991,0 11.457,-4.9569 11.457,-11.256 V 184.49 H 1.008 Z"
     id="path19"
     style="fill:#1a1a1a" />
  <path
     d="M 38.596,120.83 0.004,183.944 h 406.02 L 367.432,120.83 H 38.602 Z m 15.075,10.251 h 298.68 l 25.929,42.612 H 27.74 l 25.929,-42.612 z"
     id="path21"
     style="fill:#1a1a1a" />
  <path
     d="m 25.583,174.14 25.939,-44.055 304.68,0.41165 24.704,43.231 -355.32,0.41165 z"
     id="path23"
     style="fill:#006066" />
  <path
     d="m 25.583,174.14 25.939,-44.055 304.68,0.41165 24.704,43.231 -355.32,0.41165 z"
     id="path25"
     style="fill:#4d4d4d" />
  <path
     d="M 51.456,130.08 25.527,174.099 H 52.059 V 130.08 h -0.60298 z"
     id="path27"
     style="fill:#4d4d4d" />
  <path
     d="m 355.766,130.08 25.929,44.019 H 355.163 V 130.08 h 0.60268 z"
     id="path29"
     style="fill:#4d4d4d" />
  <path
     d="m 57.316,244.65 v 53.466 H 74.401 V 244.65 Z m 34.572,0 v 53.466 h 17.085 V 244.65 Z m 34.773,0 v 53.466 h 17.085 V 244.65 Z m 34.773,0 v 53.466 h 16.884 V 244.65 Z m 34.572,0 v 53.466 h 17.085 V 244.65 Z m 34.773,0 v 53.466 h 16.884 V 244.65 Z m 34.572,0 v 53.466 h 17.085 V 244.65 Z m 34.773,0 v 53.466 h 17.085 V 244.65 Z m 34.572,0 v 53.466 h 17.085 V 244.65 Z m -277.38,77.184 4.623,53.466 h 12.462 v -53.466 z m 34.572,0 V 375.3 h 17.085 v -53.466 z m 34.773,0 V 375.3 h 17.085 v -53.466 z m 34.773,0 V 375.3 h 16.884 v -53.466 z m 34.572,0 V 375.3 h 17.085 v -53.466 z m 34.773,0 V 375.3 h 16.884 v -53.466 z m 34.572,0 V 375.3 h 17.085 v -53.466 z m 34.773,0 V 375.3 h 17.085 v -53.466 z m 34.572,0 V 375.3 h 12.462 l 4.623,-53.466 z"
     id="path31"
     style="fill:#4d4d4d" />
  <path
     d="m 57.226,245.22 v 6.834 h 17.085 v -6.834 z m 34.572,0 v 6.834 h 17.085 v -6.834 z m 34.773,0 v 6.834 h 17.085 v -6.834 z m 34.773,0 v 6.834 h 16.884 v -6.834 z m 34.572,0 v 6.834 h 17.085 v -6.834 z m 34.773,0 v 6.834 h 16.884 v -6.834 z m 34.572,0 v 6.834 h 17.085 v -6.834 z m 34.773,0 v 6.834 h 17.085 v -6.834 z m 34.572,0 v 6.834 h 17.085 v -6.834 z m -277.38,77.184 0.60268,6.834 h 16.482 v -6.834 h -17.085 z m 34.572,0 v 6.834 h 17.085 v -6.834 z m 34.773,0 v 6.834 h 17.085 v -6.834 z m 34.773,0 v 6.834 h 16.884 v -6.834 z m 34.572,0 v 6.834 h 17.085 v -6.834 z m 34.773,0 v 6.834 h 16.884 v -6.834 z m 34.572,0 v 6.834 h 17.085 v -6.834 z m 34.773,0 v 6.834 h 17.085 v -6.834 z m 34.572,0 v 6.834 h 16.482 l 0.60268,-6.834 h -17.085 z"
     id="path33"
     style="fill:#333333" />
  <path
     d="m 58.506,291.88 v 9.246 h 17.085 v -9.246 z m 34.572,0 v 9.246 h 17.085 v -9.246 z m 34.773,0 v 9.246 h 17.085 v -9.246 z m 34.773,0 v 9.246 h 16.884 v -9.246 z m 34.572,0 v 9.246 h 17.085 v -9.246 z m 34.773,0 v 9.246 h 16.884 v -9.246 z m 34.572,0 v 9.246 h 17.085 v -9.246 z m 34.773,0 v 9.246 h 17.085 v -9.246 z m 34.572,0 v 9.246 h 17.085 v -9.246 z m -277.38,32.964 4.623,53.466 h 12.462 v -9.2459 H 63.129 l -3.819,-44.22 h -0.80401 z m 293.66,0 -3.819,44.22 h -12.462 v 9.2459 h 12.462 l 4.623,-53.466 h -0.80399 z m -259.09,44.22 v 9.2459 h 17.085 v -9.2459 z m 34.773,0 v 9.2459 h 17.085 v -9.2459 z m 34.773,0 v 9.2459 h 16.884 v -9.2459 z m 34.572,0 v 9.2459 h 17.085 v -9.2459 z m 34.773,0 v 9.2459 h 16.884 v -9.2459 z m 34.572,0 v 9.2459 h 17.085 v -9.2459 z m 34.773,0 v 9.2459 h 17.085 v -9.2459 z"
     id="path35"
     style="fill:#808080" />
  <path
     d="m 2.211,183.06 402.8,1.608"
     id="path37"
     style="opacity:0.8;fill:#ffffff;stroke:#ffffff;stroke-width:2.27900004" />
  <path
     d="m 51.966,131.51 17.873,-0.61877"
     id="path39"
     style="opacity:0.8;fill:#4d4d4d;stroke:#ffffff;stroke-width:2.09389997" />
  <path
     d="m 218.69412,209.82675 c 0,5.99446 -4.85944,10.85391 -10.8539,10.85391 -5.99446,0 -10.85391,-4.85945 -10.85391,-10.85391 0,-5.99446 4.85945,-10.8539 10.85391,-10.8539 5.99446,0 10.8539,4.8595 10.8539,10.8539 z"
     id="path41"
     style="opacity:0.8;fill:#2e3436;stroke-width:5.26249981" />
  <path
     d="m 303.396,130.08 -3.3682,43.375 10.687,0.6374 3.3334,-44.088 -10.653,0.0753 z m 13.654,52.906 -109.34,21.651 2.613,11.055 114.33,-24.93 3.8534,-4.6171 1.7056,-3.8535 -13.163,0.69459 z"
     id="path43"
     style="fill:#808080" />
  <path
     d="m 278.386,2.04 c -1.9343,0.27014 -3.7334,1.3948 -4.824,3.015 l -90.249,113.97 h 17.889 l 79.194,-100.3 46.23,36.984 -124.42,154.77 c 0,0 4.02,8.844 14.07,3.216 l 125.62,-154.77 c 2.4077,-2.9069 1.8211,-7.7952 -1.206,-10.05 L 283.606,3.851 C 282.207,2.5722 280.2702,1.9017 278.38,2.042 Z"
     id="path45" />
  <path
     transform="matrix(6.432,0,0,6.432,-1219.814,-3077.83)"
     d="m 233.4375,479.1875 -0.625,0.1875 9.5625,7.46875 -19.65625,24.40625 h 0.5625 L 242.9375,486.78125 Z M 232.75,481.25 c -0.2377,0.0605 -0.45341,0.20508 -0.59375,0.40625 l -12.3125,15.375 h 0.59375 l 12.4375,-15.5625 c 0.0495,-0.0839 0.1164,-0.15193 0.1875,-0.21875 -0.0757,-0.009 -0.17437,-0.009 -0.25,0 z"
     id="path47"
     style="fill:#ffffff;filter:url(#c)" />
  <path
     d="m 315.616,173.8 1.137,9.6647 12.791,-0.56858 -4.548,-9.6647 -9.3804,0.56859 z"
     id="path49"
     style="fill:#666666" />
  <path
     d="m 296.796,120.75 6.8827,9.3292 10.653,-0.0753 -6.0154,-9.717 -11.52,0.46311 z"
     id="path51"
     style="fill:#666666" />
</svg>
