<?xml version="1.0" encoding="UTF-8"?>
<svg width="210mm" height="210mm" version="1.1" viewBox="0 0 744.09449 744.09448" xmlns="http://www.w3.org/2000/svg">
 <g transform="translate(0 -308.27)">
  <g transform="matrix(.96767 0 0 .96767 -134.7 55.596)">
   <circle cx="237.39" cy="547.29" r="72.731"/>
   <path d="m331.33 728.1c1e-5 -98.747-42.06-118.19-93.944-118.19-51.884 1e-5 -93.944 19.441-93.944 118.19 0 98.747 42.06 178.8 93.944 178.8s93.944-80.05 93.944-178.8z"/>
   <rect x="190.92" y="752.31" width="92.934" height="268.7"/>
  </g>
  <g transform="matrix(1.3296 0 0 1.3296 170.61 -313.93)">
   <circle cx="237.39" cy="547.29" r="72.731"/>
   <path d="m331.33 728.1c1e-5 -98.747-42.06-118.19-93.944-118.19-51.884 1e-5 -93.944 19.441-93.944 118.19 0 98.747 42.06 178.8 93.944 178.8s93.944-80.05 93.944-178.8z"/>
   <rect x="190.92" y="752.31" width="92.934" height="268.7"/>
  </g>
  <g transform="matrix(1.0713 0 0 1.0713 -6.9396 -83.848)">
   <path d="m271.91 582.3c-73.375 8.9e-4 -132.86 189.25-132.86 302.86 0.0177 0.9527 0.0396 1.9052 0.0658 2.8574h265.56c0.0352-0.95213 0.0661-1.9046 0.0926-2.8574 2.5e-4 -113.61-59.483-302.86-132.86-302.86z" stroke="#fff" stroke-width="9.3341"/>
   <circle cx="271.91" cy="513.97" r="87.883"/>
   <rect x="225.45" y="783.66" width="92.934" height="268.7"/>
  </g>
  <circle cx="653.93" cy="694.84" r="56.928" stroke="#fff" stroke-width="10"/>
  <g transform="matrix(.64777 0 0 .64777 753.87 481.24)">
   <path d="m-154.29 398.08c-73.375 8.9e-4 -132.86 189.25-132.86 302.86 0.0177 0.9527 0.0396 1.9052 0.0658 2.8574h265.56c0.03517-0.95213 0.06605-1.9046 0.09265-2.8574 2.52e-4 -113.61-59.483-302.86-132.86-302.86z"/>
   <rect x="-200.75" y="599.44" width="92.934" height="268.7"/>
  </g>
 </g>
</svg>
