<?xml version="1.0" encoding="UTF-8"?>
<!DOCTYPE svg  PUBLIC '-//W3C//DTD SVG 1.1//EN'  'http://www.w3.org/Graphics/SVG/1.1/DTD/svg11.dtd'>
<svg enable-background="new 0 0 66.15 61.15" version="1.1" viewBox="0 0 66.15 61.15" xml:space="preserve" xmlns="http://www.w3.org/2000/svg" xmlns:xlink="http://www.w3.org/1999/xlink">
<symbol id="c" viewBox="0 -2.35 66.15 2.359">
		<path d="m63.5-0.05l2.65-2.3-66.15 0.15c1.333 1.567 2.183 2.3 2.55 2.2l60.95-0.05z" clip-rule="evenodd" fill-rule="evenodd"/>
</symbol>
<symbol id="d">
</symbol>
			<use transform="matrix(1 0 0 -1 0 58.8)" y="-2.35" width="66.15" height="2.359" enable-background="new" opacity=".25" xlink:href="#c"/>
			<path d="m33.6 17.5l20.65 0.35 1.1 0.75c0.733 0.667 1.184 1.417 1.351 2.25 0.267 1.333 0.45 3.283 0.55 5.85l3.2 5.3c2.2 3.8 3.45 6.35 3.75 7.65 0.467 2.133 0.616 5.533 0.45 10.199l-1.601 10.151-60.3-0.35-1.3-9.801c-0.134-4.665 0.017-8.066 0.45-10.199 0.3-1.3 1.55-3.85 3.75-7.65 1.1-1.9 2.167-3.667 3.2-5.3 0.1-2.567 0.283-4.517 0.55-5.85 0.2-0.833 0.667-1.583 1.4-2.25 0.4-0.333 0.767-0.583 1.1-0.75l21.7-0.35z" clip-rule="evenodd" fill="#575757" fill-rule="evenodd"/>
			<path d="m31.55 19.75c-1.433 0.067-2.5 0.1-3.2 0.1-1.233 0-2.083-0.2-2.55-0.6-0.3-0.233-0.017-0.517 0.85-0.85 0.434-0.167 0.9-0.3 1.4-0.4l9.75 0.15 1 0.15c0.733 0.2 1.283 0.483 1.65 0.85 0.233 0.233-0.934 0.417-3.5 0.55-2.433 0.133-4.233 0.15-5.4 0.05z" clip-rule="evenodd" fill="#424242" fill-rule="evenodd"/>
			<path d="m17.05 32.2c7.3-0.2 12.833-0.3 16.601-0.3 9.767 0 18.717 0.066 26.85 0.199l1.15 2-30.2-0.35c-3.567-0.066-8.7-0.017-15.4 0.15-5.267 0.1-9.167 0.216-11.7 0.35l1.05-1.8c0.499 1e-3 4.382-0.083 11.649-0.249z" clip-rule="evenodd" fill="#666" fill-rule="evenodd"/>
			<path d="m1.65 41.25l0.25-1.6c0.133-0.567 0.483-1.45 1.05-2.65l0.7-1.1 9.65 0.9c8.067 0.533 16.233 0.733 24.5 0.601 11.867-0.2 20.117-0.75 24.75-1.65 0.934 1.866 1.483 3.167 1.65 3.9l0.2 1.25c-5.533 0.099-15.983 0.199-31.35 0.299-15.7 0.067-26.167 0.083-31.4 0.05z" clip-rule="evenodd" fill="#404040" fill-rule="evenodd"/>
			<path d="m1.95 40.9c-0.067 0-0.1-0.15-0.1-0.45 0-0.334 0.017-0.601 0.05-0.8 0.067-0.334 0.284-0.95 0.65-1.851 1.367 1.134 6.733 1.867 16.1 2.2 8.467 0.3 16.817 0.417 25.05 0.35 7.767-0.066 12.8-0.267 15.1-0.6 1.567-0.233 2.7-0.467 3.4-0.7 0.767-0.3 1.217-0.649 1.35-1.05 0.367 0.8 0.583 1.35 0.65 1.65l0.25 1.5c-5.134 0.1-9.9 0.183-14.3 0.25-8.5 0.1-14.733 0.083-18.7-0.051-9.6-0.298-19.433-0.448-29.5-0.448z" clip-rule="evenodd" fill="#707070" fill-rule="evenodd"/>
			<path d="m31.15 21.4c11.534 0.3 20.083 0.283 25.65-0.05 0.2 1.267 0.333 2.683 0.4 4.25l0.05 1.75 2 2.75c-2.367-0.133-4.25-0.167-5.65-0.1-6.732 0.3-16.883 0.45-30.45 0.45-5.833 0-11.466 0.167-16.9 0.5l2.6-3.6 0.05-1.3c0.1-1.867 0.25-3.417 0.45-4.65 8.8-0.167 16.067-0.167 21.8 0z" clip-rule="evenodd" fill="#262626" fill-rule="evenodd"/>
			<path d="m6.3 30.9c0.7-1.2 1.434-2.417 2.2-3.65l48.75 0.1 0.85 0.65 1.351 2.3c-13.033 0.267-21.967 0.367-26.8 0.3-4.335-0.1-13.118 0-26.351 0.3z" clip-rule="evenodd" fill="#404040" fill-rule="evenodd"/>
			<path d="m9.575 49.325c-0.552-0.295-0.86-0.453-0.925-0.476 1.485-0.353 1.793-0.194 0.925 0.476 0.304 0.148 0.679 0.34 1.125 0.575 0.866 0.466 2.816 0.666 5.85 0.6l40.25-1 4.851 1.15c0 0.033-0.15 0.666-0.45 1.899-0.101 1 0.433 0.983 1.6-0.05l0.25 7.5-60.3-0.35 0.549-6.649c0-0.033 1.534-0.9 4.6-2.6 0.762-0.449 1.32-0.807 1.675-1.075z" clip-rule="evenodd" fill="#1C1C1C" fill-rule="evenodd"/>
			<path d="m57.25 26.05c-9.667 0.2-18.2 0.317-25.6 0.35-12.167-0.1-19.833-0.117-23-0.05l0.2-0.3 0.05-1.65 22.05-0.5c9.8-0.2 18.55-0.433 26.25-0.7l0.05 2.85z" clip-rule="evenodd" fill="#1C1C1C" fill-rule="evenodd"/>
			<rect x="28.3" y="12.5" width="9.65" height="6.65" clip-rule="evenodd" fill="#404040" fill-rule="evenodd"/>
			<rect x="28.3" y="18.25" width="9.65" height=".9" clip-rule="evenodd" fill="#262626" fill-rule="evenodd"/>
			<rect x="28.3" y="12.5" width="9.65" height="4.4" clip-rule="evenodd" fill="#262626" fill-rule="evenodd"/>
			<rect x="28.3" y="14" width="9.65" height="1.25" clip-rule="evenodd" fill="#0D0D0D" fill-rule="evenodd"/>
			<path d="m21.05 20.5l35.7-0.15 0.05 1c-3.366 0.2-8.717 0.3-16.05 0.3l-31.4-0.25 0.4-1.4 2.85 0.25c2.5 0.167 5.317 0.25 8.45 0.25z" clip-rule="evenodd" fill="#707070" fill-rule="evenodd"/>
			<path d="m4.95 44.35c0.967-0.433 10.433-0.65 28.4-0.65s27.367 0.217 28.2 0.649c0.867 0.4 1.317 2.417 1.351 6.051 0.066 3.633-0.384 5.649-1.351 6.05-1 0.434-10.55 0.633-28.65 0.6-18.1 0-27.417-0.2-27.95-0.6-0.867-0.634-1.317-2.7-1.35-6.2-0.067-3.533 0.383-5.5 1.35-5.9z" clip-rule="evenodd" fill="#707070" fill-rule="evenodd"/>
			<path d="m4.95 44.3c0.966-0.434 10.45-0.633 28.45-0.6 17.967 0 27.35 0.2 28.149 0.6 0.8 0.4 1.233 2.334 1.3 5.8 0.067 3.5-0.25 5.434-0.949 5.801-0.667 0.366-10.25 0.533-28.75 0.5-18.433-0.035-27.966-0.201-28.6-0.501-0.7-0.334-1.017-2.233-0.95-5.7 0.033-3.566 0.483-5.533 1.35-5.9z" clip-rule="evenodd" fill-rule="evenodd"/>
			<path d="m5.05 45.289c0.533-0.352 10.017-0.494 28.45-0.431 18.301 0.095 27.65 0.239 28.051 0.431 0.332 0.159 0.516 1.563 0.549 4.211 0.033 2.68-0.15 4.243-0.549 4.69-0.434 0.479-9.918 0.718-28.451 0.718s-27.883-0.239-28.049-0.718c-0.268-0.702-0.451-2.201-0.551-4.499-0.133-2.585 0.05-4.051 0.55-4.402z" clip-rule="evenodd" fill="#575757" fill-rule="evenodd"/>
			<path d="m5.05 46.039c0.533-0.352 10.017-0.494 28.45-0.431 18.301 0.095 27.65 0.239 28.051 0.431 0.332 0.159 0.516 1.563 0.549 4.211 0.033 2.68-0.15 4.243-0.549 4.69-0.434 0.479-9.918 0.718-28.451 0.718s-27.883-0.239-28.049-0.718c-0.268-0.702-0.451-2.201-0.551-4.499-0.133-2.585 0.05-4.051 0.55-4.402z" clip-rule="evenodd" fill="#3B3B3B" fill-rule="evenodd"/>
			<path d="m9.65 48.2c-2.067 0.133-3.783 0.267-5.15 0.4 0.233-1.5 0.65-2.35 1.25-2.55 0.967-0.3 10.2-0.45 27.7-0.45 17.467 0 26.616 0.15 27.45 0.45 0.566 0.2 0.967 1.117 1.199 2.75l-19.149 0.35c-1.367 0-5-0.117-10.9-0.351-5.566-0.233-10.066-0.45-13.5-0.649-2.5-0.133-5.467-0.117-8.9 0.05z" clip-rule="evenodd" fill="#2E2E2E" fill-rule="evenodd"/>
			<path d="m5.75 54.95c-0.566-0.367-0.967-1.483-1.2-3.351v-0.05l5 0.65c3.967 0.434 7.434 0.583 10.4 0.45 11.2-0.4 18.7-0.534 22.5-0.4 2.8 0.066 9.383-0.2 19.75-0.8-0.167 2.066-0.601 3.233-1.3 3.5-0.967 0.3-10.268 0.45-27.9 0.45-17.633 1e-3 -26.717-0.149-27.25-0.449z" clip-rule="evenodd" fill="#2E2E2E" fill-rule="evenodd"/>
			<path d="m20.4 28.9c0 0.733-1.083 1.1-3.25 1.1-2.1 0-3.133-0.367-3.1-1.1 0.034-0.333 0.35-0.483 0.95-0.45 0.367 0.033 1.083 0.083 2.15 0.15 0.567 0 1.317-0.117 2.25-0.35 0.666-0.1 1 0.117 1 0.65z" clip-rule="evenodd" fill-rule="evenodd"/>
			<path d="m20.3 28.55c0 0.467-1.017 0.7-3.05 0.7-2 0-3-0.233-3-0.7 0-0.2 0.3-0.367 0.9-0.5 0.567-0.133 1.267-0.2 2.1-0.2s1.55 0.066 2.15 0.2 0.9 0.3 0.9 0.5z" clip-rule="evenodd" fill="#7C8585" fill-rule="evenodd"/>
			<path d="m18.25 33.35c-0.633 0.2-1.4 0.301-2.3 0.301-0.833 0-1.534-0.101-2.1-0.301-0.6-0.233-0.917-0.517-0.95-0.85-0.066-1.167 1.067-1.75 3.4-1.75 2.167 0 3.184 0.583 3.05 1.75-0.034 0.333-0.4 0.616-1.1 0.85z" clip-rule="evenodd" fill-rule="evenodd"/>
			<path d="m19.2 31.65c0 0.267-0.3 0.5-0.9 0.699-0.566 0.167-1.283 0.25-2.15 0.25-0.833 0-1.533-0.083-2.1-0.25-0.6-0.199-0.9-0.433-0.9-0.699 0-0.233 0.3-0.45 0.9-0.65 0.567-0.167 1.267-0.25 2.1-0.25 0.867 0 1.583 0.083 2.15 0.25 0.6 0.2 0.9 0.417 0.9 0.65z" clip-rule="evenodd" fill="#7C8585" fill-rule="evenodd"/>
			<path d="m14.15 34.796c2.267-0.073 3.399 0.534 3.399 1.824 0 0.516-0.316 0.939-0.95 1.271-0.6 0.368-1.383 0.571-2.35 0.607-0.934 0.037-1.733-0.11-2.4-0.442-0.699-0.368-1.05-0.792-1.05-1.271-0.032-1.252 1.084-1.915 3.351-1.989z" clip-rule="evenodd" fill-rule="evenodd"/>
			<path d="m16.3 34.796c0.634 0.258 0.967 0.591 1 0.995 0.033 0.368-0.267 0.719-0.899 1.051-0.601 0.294-1.351 0.46-2.25 0.497-0.9 0.037-1.65-0.074-2.25-0.332-0.634-0.258-0.967-0.59-1-0.994 0-0.369 0.3-0.7 0.899-0.995 0.634-0.295 1.384-0.479 2.25-0.553 0.867-0.037 1.617 0.073 2.25 0.331z" clip-rule="evenodd" fill="#7C8585" fill-rule="evenodd"/>
			<path d="m32.2 28.9c0 0.733-1.083 1.1-3.25 1.1-2.1 0-3.134-0.367-3.1-1.1 0.033-0.333 0.35-0.483 0.95-0.45 0.367 0.033 1.083 0.083 2.15 0.15 0.566 0 1.316-0.117 2.25-0.35 0.667-0.1 1 0.117 1 0.65z" clip-rule="evenodd" fill-rule="evenodd"/>
			<path d="m32.1 28.55c0 0.467-1.017 0.7-3.05 0.7-2 0-3-0.233-3-0.7 0-0.2 0.3-0.367 0.9-0.5 0.566-0.133 1.267-0.2 2.1-0.2s1.55 0.066 2.15 0.2c0.6 0.133 0.9 0.3 0.9 0.5z" clip-rule="evenodd" fill="#7C8585" fill-rule="evenodd"/>
			<path d="m31.15 32.5c-0.033 0.333-0.4 0.616-1.1 0.85-0.633 0.2-1.4 0.301-2.3 0.301-0.833 0-1.533-0.101-2.1-0.301-0.6-0.233-0.917-0.517-0.95-0.85-0.067-1.167 1.066-1.75 3.4-1.75 2.167 0 3.183 0.583 3.05 1.75z" clip-rule="evenodd" fill-rule="evenodd"/>
			<path d="m31 31.65c0 0.267-0.3 0.5-0.9 0.699-0.567 0.167-1.284 0.25-2.15 0.25-0.833 0-1.534-0.083-2.1-0.25-0.6-0.199-0.9-0.433-0.9-0.699 0-0.233 0.3-0.45 0.9-0.65 0.566-0.167 1.267-0.25 2.1-0.25 0.866 0 1.583 0.083 2.15 0.25 0.6 0.2 0.9 0.417 0.9 0.65z" clip-rule="evenodd" fill="#7C8585" fill-rule="evenodd"/>
			<path d="m30.7 36.786c0 0.516-0.317 0.939-0.95 1.271-0.6 0.332-1.367 0.534-2.3 0.607-0.967 0.038-1.783-0.109-2.45-0.441-0.7-0.331-1.05-0.755-1.05-1.271-0.033-1.252 1.083-1.915 3.35-1.989 2.266-0.149 3.4 0.46 3.4 1.823z" clip-rule="evenodd" fill-rule="evenodd"/>
			<path d="m30.45 35.85c0.033 0.334-0.267 0.634-0.9 0.9-0.633 0.267-1.383 0.417-2.25 0.45-0.866 0.066-1.616-0.017-2.25-0.25-0.633-0.233-0.966-0.533-1-0.9 0-0.333 0.3-0.633 0.9-0.899 0.633-0.267 1.383-0.434 2.25-0.5 0.9-0.034 1.65 0.066 2.25 0.3 0.633 0.233 0.967 0.532 1 0.899z" clip-rule="evenodd" fill="#687070" fill-rule="evenodd"/>
			<path d="m30.45 35.974c0.033 0.369-0.267 0.7-0.9 0.995s-1.383 0.461-2.25 0.498c-0.867 0.073-1.617-0.019-2.25-0.276-0.633-0.259-0.966-0.59-1-0.995 0-0.368 0.3-0.7 0.9-0.994 0.633-0.295 1.383-0.479 2.25-0.553 0.9-0.038 1.65 0.073 2.25 0.331 0.633 0.257 0.967 0.588 1 0.994z" clip-rule="evenodd" fill="#7C8585" fill-rule="evenodd"/>
			<path d="m35.75 28.9c0-0.533 0.333-0.75 1-0.65 0.4 0.067 1.15 0.183 2.25 0.35 0.566 0 1.283-0.05 2.15-0.15 0.6-0.034 0.916 0.117 0.949 0.45 0.033 0.733-1 1.1-3.1 1.1-2.166 0-3.249-0.367-3.249-1.1z" clip-rule="evenodd" fill-rule="evenodd"/>
			<path d="m35.85 28.55c0-0.2 0.301-0.367 0.9-0.5 0.566-0.133 1.267-0.2 2.1-0.2 2.033 0 3.051 0.233 3.051 0.7s-1.018 0.7-3.051 0.7c-2 0-3-0.233-3-0.7z" clip-rule="evenodd" fill="#7C8585" fill-rule="evenodd"/>
			<path d="m36.75 32.5c-0.066-1.167 0.95-1.75 3.05-1.75 2.4 0 3.533 0.583 3.4 1.75-0.033 0.333-0.333 0.616-0.9 0.85-0.566 0.2-1.283 0.301-2.149 0.301-0.867 0-1.634-0.101-2.301-0.301-0.7-0.234-1.067-0.517-1.1-0.85z" clip-rule="evenodd" fill-rule="evenodd"/>
			<path d="m36.95 31.65c0-0.233 0.3-0.45 0.899-0.65 0.567-0.167 1.268-0.25 2.101-0.25 0.866 0 1.583 0.083 2.149 0.25 0.601 0.2 0.9 0.417 0.9 0.65 0 0.267-0.3 0.5-0.9 0.699-0.566 0.167-1.283 0.25-2.149 0.25-0.833 0-1.533-0.083-2.101-0.25-0.599-0.199-0.899-0.432-0.899-0.699z" clip-rule="evenodd" fill="#7C8585" fill-rule="evenodd"/>
			<path d="m37.2 36.786c0-1.363 1.149-1.972 3.45-1.824 2.267 0.074 3.383 0.737 3.35 1.989-0.033 0.517-0.383 0.94-1.05 1.271-0.7 0.332-1.517 0.479-2.45 0.441-0.967-0.036-1.75-0.238-2.35-0.607-0.633-0.33-0.95-0.754-0.95-1.27z" clip-rule="evenodd" fill-rule="evenodd"/>
			<path d="m37.5 35.957c0-0.405 0.316-0.736 0.95-0.995 0.6-0.258 1.35-0.367 2.25-0.331 0.899 0.073 1.649 0.258 2.25 0.553 0.633 0.295 0.933 0.626 0.899 0.994-0.033 0.406-0.366 0.737-1 0.995-0.633 0.258-1.383 0.35-2.25 0.276-0.866-0.037-1.6-0.203-2.199-0.498-0.633-0.294-0.933-0.626-0.9-0.994z" clip-rule="evenodd" fill="#7C8585" fill-rule="evenodd"/>
			<path d="m47.1 28.9c0-0.533 0.334-0.75 1-0.65 0.4 0.067 1.15 0.183 2.25 0.35 0.567 0 1.283-0.05 2.15-0.15 0.6-0.034 0.917 0.117 0.95 0.45 0.033 0.733-1 1.1-3.101 1.1-2.165 0-3.249-0.367-3.249-1.1z" clip-rule="evenodd" fill-rule="evenodd"/>
			<path d="m47.2 28.55c0-0.2 0.3-0.367 0.899-0.5 0.567-0.133 1.283-0.2 2.15-0.2 0.833 0 1.533 0.066 2.1 0.2 0.601 0.133 0.9 0.3 0.9 0.5 0 0.467-1 0.7-3 0.7-2.032 0-3.049-0.233-3.049-0.7z" clip-rule="evenodd" fill="#7C8585" fill-rule="evenodd"/>
			<path d="m48.1 32.5c-0.066-1.167 0.967-1.75 3.101-1.75 2.366 0 3.5 0.583 3.399 1.75-0.033 0.333-0.35 0.616-0.949 0.85-0.567 0.2-1.283 0.301-2.15 0.301s-1.633-0.101-2.3-0.301c-0.701-0.234-1.068-0.517-1.101-0.85z" clip-rule="evenodd" fill-rule="evenodd"/>
			<path d="m48.3 31.65c0-0.233 0.3-0.45 0.9-0.65 0.6-0.167 1.316-0.25 2.149-0.25 0.834 0 1.533 0.083 2.101 0.25 0.6 0.2 0.899 0.417 0.899 0.65 0 0.267-0.3 0.5-0.899 0.699-0.567 0.167-1.267 0.25-2.101 0.25-0.866 0-1.583-0.083-2.149-0.25-0.6-0.199-0.9-0.432-0.9-0.699z" clip-rule="evenodd" fill="#7C8585" fill-rule="evenodd"/>
			<path d="m49.95 36.62c0-1.29 1.133-1.897 3.399-1.824 2.268 0.074 3.384 0.737 3.351 1.99 0 0.516-0.351 0.939-1.05 1.271-0.667 0.332-1.483 0.479-2.45 0.442-0.967-0.036-1.75-0.239-2.351-0.607-0.599-0.332-0.899-0.756-0.899-1.272z" clip-rule="evenodd" fill-rule="evenodd"/>
			<path d="m50.2 35.791c0-0.404 0.316-0.737 0.95-0.995 0.633-0.258 1.399-0.368 2.3-0.331 0.899 0.073 1.649 0.258 2.25 0.553 0.6 0.295 0.883 0.626 0.85 0.995 0 0.404-0.316 0.736-0.95 0.994-0.633 0.258-1.399 0.369-2.3 0.332-0.899-0.037-1.633-0.203-2.2-0.497-0.633-0.332-0.933-0.683-0.9-1.051z" clip-rule="evenodd" fill="#7C8585" fill-rule="evenodd"/>
			<path d="m35.3 25.25c8.4-0.2 15.717-0.3 21.95-0.3v1.1c-9.667 0.2-18.2 0.317-25.6 0.35-12.167-0.1-19.833-0.117-23-0.05l0.2-0.3v-0.8c12.6 0.133 21.417 0.133 26.45 0z" clip-rule="evenodd" fill="#0D0D0D" fill-rule="evenodd"/>
			<path d="m2.75 59.65l-0.2-1.15 17-0.5c4.267-0.134 9.867-0.2 16.8-0.2 6.967 0 11.7 0.066 14.2 0.2s6.817-0.083 12.95-0.65l-0.45 2.65-60.3-0.35z" clip-rule="evenodd" fill="#0D0D0D" fill-rule="evenodd"/>
				<path d="m52.75 13.4c-0.4 0.3-7.167 0.45-20.3 0.45-13.067-0.033-19.7-0.184-19.9-0.45-0.3-0.5-0.566-2.483-0.8-5.95-0.267-3.767 0-5.784 0.8-6.05 1-0.367 7.717-0.566 20.15-0.6 12.566-0.066 19.25 0.133 20.05 0.6 0.767 0.467 1.066 2.5 0.9 6.1-0.133 3.5-0.433 5.467-0.9 5.9z" clip-rule="evenodd" fill="#262626" fill-rule="evenodd"/>
			<path d="m50.7 12.05c-0.601 0.3-6.717 0.45-18.35 0.45-11.567-0.033-17.534-0.183-17.9-0.45-0.534-0.466-0.833-1.983-0.9-4.55-0.033-2.6 0.267-4.05 0.9-4.35 0.633-0.267 6.7-0.4 18.2-0.4s17.517 0.133 18.05 0.4c0.566 0.3 0.866 1.783 0.899 4.45 0.034 2.667-0.266 4.15-0.899 4.45z" clip-rule="evenodd" fill-rule="evenodd"/>
			<path d="m49.8 10.85c-0.6 0.267-6.433 0.4-17.5 0.4-11.033 0-16.716-0.133-17.05-0.4-0.533-0.4-0.8-1.733-0.8-4-0.034-2.3 0.233-3.583 0.8-3.85 0.6-0.233 6.383-0.35 17.35-0.35 10.966 0 16.7 0.117 17.2 0.35 0.533 0.3 0.817 1.617 0.851 3.95 0.033 2.367-0.251 3.667-0.851 3.9z" clip-rule="evenodd" fill="#444A52" fill-rule="evenodd"/>
			<path d="m49.2 9.9c-0.601 0.233-6.2 0.333-16.8 0.3-10.633 0-16.1-0.1-16.4-0.3-0.533-0.3-0.8-1.35-0.8-3.15-0.033-1.833 0.234-2.85 0.8-3.05s6.117-0.3 16.65-0.3c10.534 0 16.05 0.1 16.55 0.3s0.767 1.233 0.8 3.1-0.233 2.9-0.8 3.1z" clip-rule="evenodd" fill="#83909E" fill-rule="evenodd"/>
			<path d="m31.55 0.05c5.333-0.133 11.667 0 19 0.4l2.3 1.1c-6.199-0.333-12.3-0.433-18.3-0.3l-22 0.3 1.5-1.3 17.5-0.2z" clip-rule="evenodd" fill="#666" fill-rule="evenodd"/>
			<path d="m52.3 0.85l0.55 0.7c-7.699-0.2-14.633-0.233-20.8-0.1-3.866 0.1-8.267 0.15-13.2 0.15l-6.3-0.05 0.5-0.9 39.25 0.2z" clip-rule="evenodd" fill="#8C8C8C" fill-rule="evenodd"/>
			<path d="m20.2 12.75l-5.9-0.15 0.25-0.4 7.9 0.1c5.667 0.034 9.533 0.034 11.6 0l16.65-0.25-0.25 0.55c-10.601 0.066-17.733 0.133-21.4 0.2-1.667 0.033-4.616 0.017-8.85-0.05z" clip-rule="evenodd" fill="#707070" fill-rule="evenodd"/>
			<path d="m32.65 9.25c5.667 0 11.383-0.15 17.15-0.45-0.1 0.633-0.3 1-0.6 1.1-0.601 0.233-6.2 0.333-16.8 0.3-10.633 0-16.1-0.1-16.4-0.3-0.167-0.066-0.333-0.333-0.5-0.8 5.8 0.1 11.517 0.15 17.15 0.15z" clip-rule="evenodd" fill="#69727D" fill-rule="evenodd"/>
			<path d="m32.65 3.4c10.534 0 16.05 0.1 16.55 0.3 0.233 0.1 0.433 0.533 0.6 1.3-5.2-0.333-10.583-0.5-16.15-0.5-8.601 0-14.7 0.067-18.3 0.2 0.167-0.567 0.383-0.9 0.65-1 0.566-0.2 6.117-0.3 16.65-0.3z" clip-rule="evenodd" fill="#69727D" fill-rule="evenodd"/>
			<g clip-rule="evenodd" fill-rule="evenodd">
				<path d="m37.05 50.4c0 0.767-0.267 1.399-0.8 1.899-0.566 0.533-1.25 0.8-2.05 0.8-0.767 0-1.434-0.267-2-0.8-0.534-0.5-0.8-1.133-0.8-1.899 0-0.733 0.267-1.351 0.8-1.851 0.566-0.533 1.233-0.8 2-0.8 0.8 0 1.483 0.267 2.05 0.8 0.533 0.501 0.8 1.118 0.8 1.851z"/>
				<path d="m36.6 50.45c0 0.566-0.232 1.05-0.699 1.45-0.434 0.399-0.967 0.6-1.601 0.6-0.633 0-1.183-0.2-1.65-0.6-0.433-0.4-0.65-0.883-0.65-1.45s0.217-1.033 0.65-1.4c0.467-0.399 1.017-0.6 1.65-0.6 0.634 0 1.167 0.2 1.601 0.6 0.466 0.4 0.699 0.867 0.699 1.4z" fill="#8A8A8A"/>
				<path d="m36.6 50.6c0 0.534-0.232 0.983-0.699 1.351-0.434 0.366-0.967 0.55-1.601 0.55-0.633 0-1.183-0.184-1.65-0.55-0.433-0.368-0.65-0.817-0.65-1.351 0-0.5 0.217-0.933 0.65-1.3 0.467-0.366 1.017-0.55 1.65-0.55 0.634 0 1.167 0.184 1.601 0.55 0.466 0.367 0.699 0.8 0.699 1.3z" fill="#4F4F4F"/>
			</g>
		<use transform="matrix(1 0 0 -1 33.05 65.95)" x="16383" y="16383" width="-32766" height="-32766" xlink:href="#d"/>
</svg>
