<?xml version="1.0" encoding="UTF-8" standalone="no"?>
<svg
   xmlns:dc="http://purl.org/dc/elements/1.1/"
   xmlns:cc="http://creativecommons.org/ns#"
   xmlns:rdf="http://www.w3.org/1999/02/22-rdf-syntax-ns#"
   xmlns:svg="http://www.w3.org/2000/svg"
   xmlns="http://www.w3.org/2000/svg"
   xmlns:xlink="http://www.w3.org/1999/xlink"
   xmlns:sodipodi="http://sodipodi.sourceforge.net/DTD/sodipodi-0.dtd"
   xmlns:inkscape="http://www.inkscape.org/namespaces/inkscape"
   enable-background="new 0 0 162.5 142.5"
   version="1.1"
   viewBox="0 0 162.5 142.5"
   xml:space="preserve"
   id="svg298"
   sodipodi:docname="database-schema-1895779.svg"
   inkscape:version="0.92.1 r15371"><metadata
     id="metadata304"><rdf:RDF><cc:Work
         rdf:about=""><dc:format>image/svg+xml</dc:format><dc:type
           rdf:resource="http://purl.org/dc/dcmitype/StillImage" /></cc:Work></rdf:RDF></metadata><defs
     id="defs302" /><sodipodi:namedview
     pagecolor="#ffffff"
     bordercolor="#666666"
     borderopacity="1"
     objecttolerance="10"
     gridtolerance="10"
     guidetolerance="10"
     inkscape:pageopacity="0"
     inkscape:pageshadow="2"
     inkscape:window-width="1360"
     inkscape:window-height="669"
     id="namedview300"
     showgrid="false"
     inkscape:zoom="2.5191891"
     inkscape:cx="81.25"
     inkscape:cy="81.230612"
     inkscape:window-x="0"
     inkscape:window-y="28"
     inkscape:window-maximized="1"
     inkscape:current-layer="g49" /><style
     type="text/css"
     id="style2">
	.st0{display:none;}
	.st1{display:inline;}
	.st2{fill:#98BFDA;}
	.st3{fill:#E5E5E5;}
	.st4{fill:#C6C5C5;}
	.st5{fill:#4653A4;}
	.st6{fill:#FFFFFF;}
	.st7{fill:#BD982E;}
	.st8{fill:#FEDD27;}
	.st9{fill:#FFC92B;}
	.st10{fill:#BDE5ED;}
	.st11{fill:#676767;}
</style><g
     class="st0"
     id="g8"><g
       class="st1"
       id="g6"><image
         sodipodi:absref="/home/olalla/Descargas/2DEED65A3C767D64.png"
         xlink:href="2DEED65A3C767D64.png"
         transform="matrix(.2937 0 0 .2937 1.7375 3)"
         width="646"
         height="480"
         overflow="visible"
         id="image4" /></g></g><g
     id="g49"
     transform="matrix(4.4192991,0,0,3.037374,-223.91693,-134.08886)"><g
       id="g70"
       transform="matrix(1.0592889,0,0,1.0346406,-3.1185946,-3.0830144)"><path
         inkscape:connector-curvature="0"
         class="st2"
         d="M 81.4,89 H 54.1 c -0.8,0 -1.4,-0.6 -1.4,-1.4 V 48.9 c 0,-0.8 0.6,-1.4 1.4,-1.4 h 27.4 c 0.8,0 1.4,0.6 1.4,1.4 v 38.6 c 0,0.9 -0.7,1.5 -1.5,1.5 z"
         id="path86"
         style="fill:#1a1a1a" /><rect
         style="fill:#e5e5e5"
         class="st3"
         x="52.599998"
         y="53.200001"
         width="30.200001"
         height="32.200001"
         id="rect88" /><rect
         style="fill:#c6c5c5"
         class="st4"
         x="52.599998"
         y="79.199997"
         width="30.200001"
         height="6.1999998"
         id="rect90" /><rect
         class="st5"
         x="54"
         y="49"
         width="4.5"
         height="2.8"
         id="rect92"
         style="fill:#b3b3b3" /><line
         style="fill:#ffffff"
         class="st6"
         x1="61.200001"
         x2="79"
         y1="50.400002"
         y2="50.400002"
         id="line94" /><path
         inkscape:connector-curvature="0"
         d="M 79,51.4 H 61.2 c -0.6,0 -1,-0.4 -1,-1 0,-0.6 0.4,-1 1,-1 H 79 c 0.6,0 1,0.4 1,1 0,0.6 -0.4,1 -1,1 z"
         id="path96" /><line
         style="fill:#ffffff"
         class="st6"
         x1="61.099998"
         x2="71.900002"
         y1="61"
         y2="61"
         id="line98" /><path
         inkscape:connector-curvature="0"
         d="M 71.9,61.5 H 61.1 c -0.3,0 -0.5,-0.2 -0.5,-0.5 0,-0.3 0.2,-0.5 0.5,-0.5 H 72 c 0.3,0 0.5,0.2 0.5,0.5 0,0.3 -0.3,0.5 -0.6,0.5 z"
         id="path100" /><line
         style="fill:#ffffff"
         class="st6"
         x1="61.299999"
         x2="76.800003"
         y1="66.800003"
         y2="66.800003"
         id="line102" /><path
         inkscape:connector-curvature="0"
         d="M 76.8,67.2 H 61.3 c -0.3,0 -0.5,-0.2 -0.5,-0.5 0,-0.3 0.2,-0.5 0.5,-0.5 h 15.5 c 0.3,0 0.5,0.2 0.5,0.5 0,0.3 -0.2,0.5 -0.5,0.5 z"
         id="path104" /><line
         style="fill:#ffffff"
         class="st6"
         x1="61.299999"
         x2="76.800003"
         y1="72.199997"
         y2="72.199997"
         id="line106" /><path
         inkscape:connector-curvature="0"
         d="M 76.8,72.8 H 61.3 c -0.3,0 -0.5,-0.2 -0.5,-0.5 0,-0.3 0.2,-0.5 0.5,-0.5 h 15.5 c 0.3,0 0.5,0.2 0.5,0.5 0,0.3 -0.2,0.5 -0.5,0.5 z"
         id="path108" /><path
         inkscape:connector-curvature="0"
         class="st7"
         d="m 56.4,63.1 v -2.5 l -0.1,0.3 z"
         id="path110"
         style="fill:#ffffff" /><path
         inkscape:connector-curvature="0"
         class="st8"
         d="m 57.2,59.8 c 0,-0.2 -0.1,-0.5 -0.3,-0.7 -0.3,-0.3 -0.8,-0.4 -1.2,-0.2 -0.3,0.2 -0.5,0.6 -0.5,0.9 0,0.3 0.3,0.6 0.6,0.7 V 61 h 0.4 v 0.5 H 56 l 0.2,0.2 v 0.1 L 56,62.1 v 0.1 l 0.2,0.2 v 0.1 l -0.1,0.1 v 0.2 l 0.3,0.3 c 0.1,0 0.1,-0.1 0.2,-0.2 V 61 c 0,0 0,-0.1 0.1,-0.1 h 0.2 l -0.2,-0.2 v -0.2 c 0.2,-0.1 0.4,-0.3 0.5,-0.5 z M 56,59.4 c 0,-0.1 0.1,-0.2 0.2,-0.3 0.1,-0.1 0.3,0 0.4,0.1 0.1,0.1 0.1,0.2 0.1,0.3 0,0.1 -0.2,0.2 -0.3,0.2 -0.3,0 -0.4,-0.1 -0.4,-0.3 z"
         id="path112"
         style="fill:#ffffff" /><path
         inkscape:connector-curvature="0"
         class="st9"
         d="M 56.4,63.3 56,62.9 v -0.3 l 0.1,-0.2 -0.2,-0.2 V 62 l 0.2,-0.2 -0.3,-0.3 0.2,-0.2 v -0.2 h -0.5 l 0.2,-0.4 c -0.3,-0.2 -0.6,-0.5 -0.6,-0.8 -0.1,-0.4 0.2,-0.9 0.6,-1 0.4,-0.2 1,-0.1 1.3,0.2 0.2,0.2 0.3,0.5 0.3,0.7 0,0.1 0,0.2 -0.1,0.4 -0.1,0.2 -0.3,0.4 -0.5,0.6 l 0.3,0.4 h -0.4 v 1.9 z m -0.2,-0.5 0.2,0.2 v -1.9 c 0,-0.1 0.1,-0.2 0.2,-0.2 0,0 -0.1,-0.1 0,-0.2 0,-0.1 0.1,-0.1 0.1,-0.1 0.2,-0.1 0.4,-0.3 0.4,-0.4 0,-0.1 0.1,-0.2 0.1,-0.3 0,-0.2 -0.1,-0.4 -0.2,-0.6 -0.3,-0.3 -0.7,-0.3 -1.1,-0.1 -0.3,0.1 -0.5,0.5 -0.4,0.8 0,0.3 0.2,0.5 0.5,0.6 0.1,0 0.1,0.1 0.1,0.1 V 61 h 0.1 c 0.1,0 0.1,0 0.2,0.1 l 0.1,0.1 v 0.3 c 0,0.1 0,0.1 -0.1,0.1 l 0.1,0.1 c 0.1,0.1 0.1,0.2 0,0.3 l -0.2,0.2 0.2,0.2 c 0.1,0.1 0.1,0.2 0,0.3 z m 0.1,-2.9 c -0.2,0 -0.4,-0.2 -0.4,-0.4 v -0.1 c 0,-0.2 0.1,-0.3 0.2,-0.4 0.2,-0.1 0.4,-0.1 0.5,0.1 0.1,0.1 0.2,0.3 0.1,0.5 -0.1,0.1 -0.2,0.3 -0.4,0.3 z m 0,-0.7 c -0.1,0 -0.1,0 0,0 -0.2,0.1 -0.2,0.1 -0.2,0.2 0,0.1 0.1,0.2 0.2,0.2 0.1,0 0.2,-0.1 0.2,-0.1 v -0.2 c -0.1,0 -0.2,-0.1 -0.2,-0.1 z"
         id="path114"
         style="fill:#ffffff" /><rect
         class="st10"
         transform="matrix(0.7071,0.7071,-0.7071,0.7071,63.721,-20.336)"
         x="55.400002"
         y="65.699997"
         width="2"
         height="2"
         id="rect116"
         style="fill:#000000" /><rect
         class="st10"
         transform="matrix(0.7071,0.7071,-0.7071,0.7071,67.61,-18.724)"
         x="55.400002"
         y="71.199997"
         width="2"
         height="2"
         id="rect118"
         style="fill:#000000" /><path
         style="fill:#ffffff"
         inkscape:connector-curvature="0"
         class="st6"
         d="M 71.5,83.2 H 56 c -0.3,0 -0.5,-0.2 -0.5,-0.5 0,-0.3 0.2,-0.5 0.5,-0.5 h 15.5 c 0.3,0 0.5,0.2 0.5,0.5 0,0.3 -0.2,0.5 -0.5,0.5 z"
         id="path120" /><polygon
         style="fill:#676767"
         class="st11"
         points="77.5,80.8 77.5,83.9 80.5,82.4 "
         id="polygon242" /></g></g></svg>