<?xml version="1.0" encoding="UTF-8" standalone="no"?>
<!-- Created with Inkscape (http://www.inkscape.org/) -->

<svg
   xmlns:dc="http://purl.org/dc/elements/1.1/"
   xmlns:cc="http://creativecommons.org/ns#"
   xmlns:rdf="http://www.w3.org/1999/02/22-rdf-syntax-ns#"
   xmlns:svg="http://www.w3.org/2000/svg"
   xmlns="http://www.w3.org/2000/svg"
   xmlns:sodipodi="http://sodipodi.sourceforge.net/DTD/sodipodi-0.dtd"
   xmlns:inkscape="http://www.inkscape.org/namespaces/inkscape"
   width="210mm"
   height="297mm"
   viewBox="0 0 210 297"
   version="1.1"
   id="svg892"
   inkscape:version="0.92.1 r15371"
   sodipodi:docname="dibujo1.svg">
  <defs
     id="defs886" />
  <sodipodi:namedview
     id="base"
     pagecolor="#ffffff"
     bordercolor="#666666"
     borderopacity="1.0"
     inkscape:pageopacity="0.0"
     inkscape:pageshadow="2"
     inkscape:zoom="0.35"
     inkscape:cx="400"
     inkscape:cy="560"
     inkscape:document-units="mm"
     inkscape:current-layer="layer1"
     showgrid="false"
     inkscape:measure-start="400,265.714"
     inkscape:measure-end="322.857,502.857"
     inkscape:window-width="1360"
     inkscape:window-height="669"
     inkscape:window-x="0"
     inkscape:window-y="28"
     inkscape:window-maximized="1" />
  <metadata
     id="metadata889">
    <rdf:RDF>
      <cc:Work
         rdf:about="">
        <dc:format>image/svg+xml</dc:format>
        <dc:type
           rdf:resource="http://purl.org/dc/dcmitype/StillImage" />
        <dc:title></dc:title>
      </cc:Work>
    </rdf:RDF>
  </metadata>
  <g
     inkscape:label="Capa 1"
     inkscape:groupmode="layer"
     id="layer1">
    <rect
       style="opacity:0.91920064;fill:#000008;fill-opacity:1;stroke:#000000;stroke-width:4.20899153;stroke-miterlimit:4;stroke-dasharray:none;stroke-opacity:0.9137255"
       id="rect894"
       width="46.113098"
       height="32.505951"
       x="21.922617"
       y="49.803574"
       rx="2.5769093"
       ry="2.5769093" />
    <rect
       style="opacity:0.91920064;fill:#000008;fill-opacity:1;stroke:#000000;stroke-width:4.20899153;stroke-miterlimit:4;stroke-dasharray:none;stroke-opacity:0.91372549"
       id="rect894-3"
       width="46.113098"
       height="32.505951"
       x="22.300592"
       y="97.806541"
       rx="2.5769093"
       ry="2.5769093" />
    <rect
       style="opacity:0.91920064;fill:#000008;fill-opacity:1;stroke:#000000;stroke-width:4.20899153;stroke-miterlimit:4;stroke-dasharray:none;stroke-opacity:0.91372549"
       id="rect894-3-6"
       width="46.113098"
       height="32.505951"
       x="23.056547"
       y="146.94345"
       rx="2.5769093"
       ry="2.5769093" />
    <rect
       style="opacity:0.91920064;fill:#000008;fill-opacity:1;stroke:#000000;stroke-width:4.23129988;stroke-miterlimit:4;stroke-dasharray:none;stroke-opacity:0.91372549"
       id="rect1474"
       width="75.572929"
       height="0.73364401"
       x="52.927818"
       y="66.445679"
       rx="2.6834884"
       ry="0.73364401" />
    <rect
       style="opacity:0.91920064;fill:#000008;fill-opacity:1;stroke:#000000;stroke-width:4.24196053;stroke-miterlimit:4;stroke-dasharray:none;stroke-opacity:0.91372549"
       id="rect1474-7"
       width="77.074173"
       height="0.72298348"
       x="52.933151"
       y="112.9421"
       rx="2.7367954"
       ry="0.72298348" />
    <rect
       style="opacity:0.91920064;fill:#000008;fill-opacity:1;stroke:#000000;stroke-width:4.20899153;stroke-miterlimit:4;stroke-dasharray:none;stroke-opacity:0.91372549"
       id="rect1474-5"
       width="72.571426"
       height="0.75595242"
       x="55.184521"
       y="165.0863"
       rx="2.5769093"
       ry="0.75595242" />
    <rect
       style="opacity:0.91920064;fill:#000008;fill-opacity:1;stroke:#000000;stroke-width:4.20899153;stroke-miterlimit:4;stroke-dasharray:none;stroke-opacity:0.91372549"
       id="rect1503"
       width="0.75595242"
       height="181.42857"
       x="130.0238"
       y="39.976189"
       rx="2.5769093"
       ry="0.75595164" />
    <rect
       style="opacity:0.91920064;fill:#000008;fill-opacity:1;stroke:#000000;stroke-width:3.34074306;stroke-miterlimit:4;stroke-dasharray:none;stroke-opacity:0.91372549"
       id="rect1474-7-5"
       width="21.278961"
       height="1.6242009"
       x="129.5732"
       y="113.23095"
       rx="0.75558597"
       ry="1.6242009" />
    <g
       transform="matrix(0.07514206,0,0,0.09951819,166.20008,88.996118)"
       id="g110">
      <path
         inkscape:connector-curvature="0"
         style="fill:#1a1a1a"
         id="path17"
         d="m 40.916,188.69 h 332.63 c 6.2992,0 11.37,5.0712 11.37,11.37 l -25.728,179.87 c 0,6.2991 -5.0711,11.37 -11.37,11.37 H 66.648 c -6.2992,0 -11.37,-5.0711 -11.37,-11.37 L 29.55,200.06 c 0,-6.2991 5.0711,-11.37 11.37,-11.37 z" />
      <path
         inkscape:connector-curvature="0"
         style="fill:#1a1a1a"
         id="path19"
         d="m 1.005,184.49 v 31.356 c 0,6.2991 4.9569,11.256 11.256,11.256 h 383.31 c 6.2991,0 11.457,-4.9569 11.457,-11.256 V 184.49 H 1.008 Z" />
      <path
         inkscape:connector-curvature="0"
         style="fill:#1a1a1a"
         id="path21"
         d="M 38.596,120.83 0.004,183.944 h 406.02 L 367.432,120.83 H 38.602 Z m 15.075,10.251 h 298.68 l 25.929,42.612 H 27.74 l 25.929,-42.612 z" />
      <path
         inkscape:connector-curvature="0"
         style="opacity:0.8;fill:#ffffff;stroke:#ffffff;stroke-width:2.27900004"
         id="path37"
         d="m 2.211,183.06 402.8,1.608" />
      <path
         inkscape:connector-curvature="0"
         id="path45"
         d="m 278.386,2.04 c -1.9343,0.27014 -3.7334,1.3948 -4.824,3.015 l -90.249,113.97 h 17.889 l 79.194,-100.3 46.23,36.984 -124.42,154.77 c 0,0 4.02,8.844 14.07,3.216 l 125.62,-154.77 c 2.4077,-2.9069 1.8211,-7.7952 -1.206,-10.05 L 283.606,3.851 C 282.207,2.5722 280.2702,1.9017 278.38,2.042 Z" />
      <g
         id="g65">
        <g
           id="g49">
          <path
             inkscape:connector-curvature="0"
             style="fill:#006066"
             id="path23"
             d="m 25.583,174.14 25.939,-44.055 304.68,0.41165 24.704,43.231 -355.32,0.41165 z" />
          <path
             inkscape:connector-curvature="0"
             style="fill:#4d4d4d"
             id="path25"
             d="m 25.583,174.14 25.939,-44.055 304.68,0.41165 24.704,43.231 -355.32,0.41165 z" />
          <path
             inkscape:connector-curvature="0"
             style="fill:#4d4d4d"
             id="path27"
             d="M 51.456,130.08 25.527,174.099 H 52.059 V 130.08 h -0.60298 z" />
          <path
             inkscape:connector-curvature="0"
             style="fill:#4d4d4d"
             id="path29"
             d="m 355.766,130.08 25.929,44.019 H 355.163 V 130.08 h 0.60268 z" />
          <path
             inkscape:connector-curvature="0"
             style="fill:#4d4d4d"
             id="path31"
             d="m 57.316,244.65 v 53.466 H 74.401 V 244.65 Z m 34.572,0 v 53.466 h 17.085 V 244.65 Z m 34.773,0 v 53.466 h 17.085 V 244.65 Z m 34.773,0 v 53.466 h 16.884 V 244.65 Z m 34.572,0 v 53.466 h 17.085 V 244.65 Z m 34.773,0 v 53.466 h 16.884 V 244.65 Z m 34.572,0 v 53.466 h 17.085 V 244.65 Z m 34.773,0 v 53.466 h 17.085 V 244.65 Z m 34.572,0 v 53.466 h 17.085 V 244.65 Z m -277.38,77.184 4.623,53.466 h 12.462 v -53.466 z m 34.572,0 V 375.3 h 17.085 v -53.466 z m 34.773,0 V 375.3 h 17.085 v -53.466 z m 34.773,0 V 375.3 h 16.884 v -53.466 z m 34.572,0 V 375.3 h 17.085 v -53.466 z m 34.773,0 V 375.3 h 16.884 v -53.466 z m 34.572,0 V 375.3 h 17.085 v -53.466 z m 34.773,0 V 375.3 h 17.085 v -53.466 z m 34.572,0 V 375.3 h 12.462 l 4.623,-53.466 z" />
          <g
             id="g34">
            <path
               inkscape:connector-curvature="0"
               d="m 57.226,245.22 v 6.834 h 17.085 v -6.834 z m 34.572,0 v 6.834 h 17.085 v -6.834 z m 34.773,0 v 6.834 h 17.085 v -6.834 z m 34.773,0 v 6.834 h 16.884 v -6.834 z m 34.572,0 v 6.834 h 17.085 v -6.834 z m 34.773,0 v 6.834 h 16.884 v -6.834 z m 34.572,0 v 6.834 h 17.085 v -6.834 z m 34.773,0 v 6.834 h 17.085 v -6.834 z m 34.572,0 v 6.834 h 17.085 v -6.834 z m -277.38,77.184 0.60268,6.834 h 16.482 v -6.834 h -17.085 z m 34.572,0 v 6.834 h 17.085 v -6.834 z m 34.773,0 v 6.834 h 17.085 v -6.834 z m 34.773,0 v 6.834 h 16.884 v -6.834 z m 34.572,0 v 6.834 h 17.085 v -6.834 z m 34.773,0 v 6.834 h 16.884 v -6.834 z m 34.572,0 v 6.834 h 17.085 v -6.834 z m 34.773,0 v 6.834 h 17.085 v -6.834 z m 34.572,0 v 6.834 h 16.482 l 0.60268,-6.834 h -17.085 z"
               id="path33"
               style="fill:#333333" />
          </g>
          <path
             inkscape:connector-curvature="0"
             style="fill:#808080"
             id="path35"
             d="m 58.506,291.88 v 9.246 h 17.085 v -9.246 z m 34.572,0 v 9.246 h 17.085 v -9.246 z m 34.773,0 v 9.246 h 17.085 v -9.246 z m 34.773,0 v 9.246 h 16.884 v -9.246 z m 34.572,0 v 9.246 h 17.085 v -9.246 z m 34.773,0 v 9.246 h 16.884 v -9.246 z m 34.572,0 v 9.246 h 17.085 v -9.246 z m 34.773,0 v 9.246 h 17.085 v -9.246 z m 34.572,0 v 9.246 h 17.085 v -9.246 z m -277.38,32.964 4.623,53.466 h 12.462 v -9.2459 H 63.129 l -3.819,-44.22 h -0.80401 z m 293.66,0 -3.819,44.22 h -12.462 v 9.2459 h 12.462 l 4.623,-53.466 h -0.80399 z m -259.09,44.22 v 9.2459 h 17.085 v -9.2459 z m 34.773,0 v 9.2459 h 17.085 v -9.2459 z m 34.773,0 v 9.2459 h 16.884 v -9.2459 z m 34.572,0 v 9.2459 h 17.085 v -9.2459 z m 34.773,0 v 9.2459 h 16.884 v -9.2459 z m 34.572,0 v 9.2459 h 17.085 v -9.2459 z m 34.773,0 v 9.2459 h 17.085 v -9.2459 z" />
          <path
             inkscape:connector-curvature="0"
             style="opacity:0.8;fill:#4d4d4d;stroke:#ffffff;stroke-width:2.09389997"
             id="path39"
             d="m 51.966,131.51 17.873,-0.61877" />
          <path
             inkscape:connector-curvature="0"
             style="opacity:0.8;fill:#2e3436;stroke-width:5.26249981"
             id="path41"
             d="m 218.69412,209.82675 c 0,5.99446 -4.85944,10.85391 -10.8539,10.85391 -5.99446,0 -10.85391,-4.85945 -10.85391,-10.85391 0,-5.99446 4.85945,-10.8539 10.85391,-10.8539 5.99446,0 10.8539,4.8595 10.8539,10.8539 z" />
          <path
             inkscape:connector-curvature="0"
             style="fill:#808080"
             id="path43"
             d="m 303.396,130.08 -3.3682,43.375 10.687,0.6374 3.3334,-44.088 -10.653,0.0753 z m 13.654,52.906 -109.34,21.651 2.613,11.055 114.33,-24.93 3.8534,-4.6171 1.7056,-3.8535 -13.163,0.69459 z" />
          <path
             inkscape:connector-curvature="0"
             style="fill:#666666"
             id="path49"
             d="m 315.616,173.8 1.137,9.6647 12.791,-0.56858 -4.548,-9.6647 -9.3804,0.56859 z" />
          <path
             inkscape:connector-curvature="0"
             style="fill:#666666"
             id="path51"
             d="m 296.796,120.75 6.8827,9.3292 10.653,-0.0753 -6.0154,-9.717 -11.52,0.46311 z" />
        </g>
      </g>
    </g>
  </g>
</svg>
