<?xml version="1.0" encoding="UTF-8" standalone="no"?>
<!-- Created with Inkscape (http://www.inkscape.org/) -->

<svg
   xmlns:dc="http://purl.org/dc/elements/1.1/"
   xmlns:cc="http://creativecommons.org/ns#"
   xmlns:rdf="http://www.w3.org/1999/02/22-rdf-syntax-ns#"
   xmlns:svg="http://www.w3.org/2000/svg"
   xmlns="http://www.w3.org/2000/svg"
   xmlns:sodipodi="http://sodipodi.sourceforge.net/DTD/sodipodi-0.dtd"
   xmlns:inkscape="http://www.inkscape.org/namespaces/inkscape"
   width="297mm"
   height="210mm"
   viewBox="0 0 297 210"
   version="1.1"
   id="svg8"
   inkscape:version="0.92.1 r15371"
   sodipodi:docname="NUEVO.svg">
  <defs
     id="defs2" />
  <sodipodi:namedview
     id="base"
     pagecolor="#ffffff"
     bordercolor="#666666"
     borderopacity="1.0"
     inkscape:pageopacity="0.0"
     inkscape:pageshadow="2"
     inkscape:zoom="0.35"
     inkscape:cx="405.71429"
     inkscape:cy="554.28571"
     inkscape:document-units="mm"
     inkscape:current-layer="layer1"
     showgrid="false"
     inkscape:window-width="1360"
     inkscape:window-height="669"
     inkscape:window-x="0"
     inkscape:window-y="28"
     inkscape:window-maximized="1" />
  <metadata
     id="metadata5">
    <rdf:RDF>
      <cc:Work
         rdf:about="">
        <dc:format>image/svg+xml</dc:format>
        <dc:type
           rdf:resource="http://purl.org/dc/dcmitype/StillImage" />
        <dc:title></dc:title>
      </cc:Work>
    </rdf:RDF>
  </metadata>
  <g
     inkscape:label="Capa 1"
     inkscape:groupmode="layer"
     id="layer1"
     transform="translate(0,-87)">
    <path
       sodipodi:type="star"
       style="opacity:0.91920064;fill:#800000;fill-opacity:1;stroke:#000000;stroke-width:4.20899916;stroke-linecap:square;stroke-linejoin:miter;stroke-miterlimit:4;stroke-dasharray:none;stroke-opacity:0.91372549;paint-order:stroke fill markers"
       id="path10"
       sodipodi:sides="26"
       sodipodi:cx="52.916664"
       sodipodi:cy="77.773811"
       sodipodi:r1="27.098545"
       sodipodi:r2="20.160698"
       sodipodi:arg1="0.52606642"
       sodipodi:arg2="0.64689691"
       inkscape:flatsided="false"
       inkscape:rounded="0"
       inkscape:randomized="0"
       d="m 76.351186,91.380953 -7.347133,-1.456023 3.409767,6.668873 -6.785191,-3.171999 1.71472,7.291096 -5.828916,-4.703626 -0.07998,7.489596 -4.533887,-5.961904 -1.870033,7.252814 -2.975364,-6.873686 -3.551407,6.594536 -1.243923,-7.386003 -5.026385,5.553003 0.559809,-7.46907 -6.209248,4.18875 2.331007,-7.118061 -7.031252,2.581062 3.966736,-6.353376 -7.444625,0.823372 5.371932,-5.219456 -7.425344,-0.982169 6.464931,-3.782202 -6.974528,-2.730629 7.182212,-2.125138 -6.118379,-4.320397 7.482089,-0.344569 -4.906651,-5.659078 7.347134,1.456024 -3.409767,-6.668873 6.78519,3.171998 -1.71472,-7.291098 5.828916,4.703628 0.07998,-7.489591 4.533886,5.9619 1.870033,-7.252817 2.975364,6.873688 3.551407,-6.594535 1.243924,7.386003 5.026384,-5.553003 -0.559808,7.46907 6.209247,-4.18875 -2.331007,7.118061 7.031252,-2.581063 -3.966735,6.353377 7.444624,-0.823373 -5.371931,5.219457 7.425343,0.982169 -6.464931,3.782201 6.974528,2.73063 -7.182212,2.125138 6.118379,4.320396 -7.482089,0.34457 z"
       inkscape:transform-center-x="0.020588344"
       inkscape:transform-center-y="-0.051991865"
       transform="matrix(3.7714336,-0.0317301,-0.37074003,2.9253518,-19.721914,-34.668993)" />
    <text
       xml:space="preserve"
       style="font-style:normal;font-variant:normal;font-weight:normal;font-stretch:normal;font-size:44.10104752px;line-height:1.14999998;font-family:'BD Cartoon Shout';-inkscape-font-specification:'BD Cartoon Shout';letter-spacing:0px;word-spacing:0px;fill:#ffffff;fill-opacity:1;stroke:none;stroke-width:1.10252619"
       x="142.77603"
       y="146.58411"
       id="text14"
       transform="scale(0.66712872,1.4989611)"><tspan
         sodipodi:role="line"
         id="tspan12"
         x="142.77603"
         y="146.58411"
         style="fill:#ffffff;stroke-width:1.10252619">NUEVO</tspan></text>
    <flowRoot
       xml:space="preserve"
       id="flowRoot16"
       style="font-style:normal;font-variant:normal;font-weight:normal;font-stretch:normal;font-size:40px;line-height:1.14999998;font-family:'BD Cartoon Shout';-inkscape-font-specification:'BD Cartoon Shout';letter-spacing:0px;word-spacing:0px;fill:#000000;fill-opacity:1;stroke:none"
       transform="scale(0.26458333)"><flowRegion
         id="flowRegion18"><rect
           id="rect20"
           width="302.85715"
           height="137.14285"
           x="45.714287"
           y="539.66254" /></flowRegion><flowPara
         id="flowPara22"></flowPara></flowRoot>  </g>
</svg>
